<?xml version="1.0" standalone="no"?>
<!DOCTYPE svg PUBLIC "-//W3C//DTD SVG 20010904//EN"
 "http://www.w3.org/TR/2001/REC-SVG-20010904/DTD/svg10.dtd">
<svg version="1.0" xmlns="http://www.w3.org/2000/svg"
 width="1024.000000pt" height="1024.000000pt" viewBox="0 0 1024.000000 1024.000000"
 preserveAspectRatio="xMidYMid meet">
<metadata>
Created by potrace 1.15, written by Peter Selinger 2001-2017
</metadata>
<g transform="translate(0.000000,1024.000000) scale(0.100000,-0.100000)"
fill="#000000" stroke="none">
<path d="M4225 8660 c-395 -27 -741 -97 -1112 -225 -604 -207 -1074 -492
-1448 -876 -196 -203 -316 -365 -436 -594 -138 -263 -230 -562 -271 -885 -22
-173 -17 -600 10 -795 92 -688 340 -1362 695 -1895 518 -775 1285 -1355 2289
-1728 599 -223 1359 -376 1873 -377 196 0 218 2 328 28 524 124 1118 461 1712
968 157 134 542 519 685 684 212 245 335 424 459 672 216 431 342 906 391
1473 29 332 -57 804 -197 1085 -201 403 -540 848 -888 1168 -329 302 -650 521
-1070 727 -638 313 -1279 483 -2120 560 -152 14 -742 20 -900 10z m559 -412
c3 -35 8 -137 11 -228 3 -91 8 -217 10 -280 46 -1102 57 -1392 52 -1396 -8 -8
-89 18 -92 30 -5 15 -20 318 -54 1101 -17 369 -32 707 -36 753 l-5 82 54 0 54
0 6 -62z m-467 -8 c11 -250 34 -740 38 -805 8 -135 35 -793 38 -905 l2 -105
-35 3 c-19 2 -36 5 -37 6 -3 2 -35 463 -78 1131 -9 132 -23 332 -31 444 -19
277 -19 279 9 284 12 3 38 4 57 3 l35 -1 2 -55z m947 -22 c5 -67 29 -1066 42
-1758 3 -157 7 -293 9 -303 2 -10 0 -17 -3 -15 -83 41 -81 39 -86 92 -3 28
-21 454 -41 946 -20 492 -39 943 -42 1003 l-6 107 61 0 60 0 6 -72z m-1390
-40 c6 -66 16 -209 41 -598 20 -297 40 -598 61 -908 9 -133 15 -244 13 -246
-2 -2 -22 -6 -44 -8 l-40 -3 -7 100 c-7 95 -23 290 -103 1263 -19 232 -35 427
-35 432 0 10 52 28 86 29 19 1 22 -6 28 -61z m1848 43 c8 -7 16 -297 23 -856
6 -435 12 -825 21 -1285 l5 -295 -48 48 -48 47 -7 298 c-3 163 -9 410 -12 547
-4 138 -11 430 -16 650 -5 220 -13 505 -16 633 l-7 234 49 -7 c27 -4 52 -10
56 -14z m470 -102 c17 -9 18 -40 18 -467 0 -401 6 -1417 13 -2279 2 -156 0
-280 -3 -275 -4 4 -23 45 -43 92 l-36 85 -5 310 c-3 171 -8 490 -11 710 -3
220 -7 501 -10 625 -3 124 -8 449 -11 724 l-7 499 39 -8 c21 -4 47 -11 56 -16z
m-2725 -254 c33 -405 61 -742 88 -1090 14 -176 28 -343 31 -371 l6 -51 -41
-10 -40 -11 -5 42 c-3 22 -10 104 -16 181 -6 77 -24 286 -41 465 -35 391 -89
1036 -89 1067 0 14 9 25 28 31 57 22 55 28 79 -253z m3167 115 l46 -19 1 -178
c0 -98 2 -234 4 -303 1 -69 6 -816 9 -1660 4 -844 9 -1688 11 -1875 2 -187 5
-724 7 -1194 l3 -855 -33 -19 c-18 -11 -34 -18 -36 -16 -14 15 -26 568 -31
1354 -3 512 -7 1160 -10 1440 -3 281 -7 1039 -10 1685 -3 646 -8 1284 -10
1418 -2 133 -3 242 0 242 2 0 24 -9 49 -20z m-3600 -67 c3 -32 22 -247 41
-478 20 -231 42 -490 50 -575 11 -122 55 -632 55 -644 0 -6 -80 -39 -84 -35
-2 2 -15 141 -30 309 -15 168 -47 517 -71 775 -24 259 -47 516 -51 572 l-7
103 34 15 c52 22 56 19 63 -42z m4084 -139 c22 -14 22 -15 22 -287 1 -149 3
-423 5 -607 2 -184 6 -1023 10 -1865 3 -841 8 -1826 11 -2187 l6 -656 -43 -31
c-23 -17 -44 -30 -45 -28 -2 1 -5 374 -9 827 -3 454 -7 1145 -10 1535 -3 391
-8 1299 -11 2019 l-7 1308 24 -7 c13 -4 34 -13 47 -21z m-4496 -90 c4 -38 16
-179 28 -314 11 -135 30 -337 41 -450 28 -288 79 -870 79 -902 0 -19 -9 -32
-32 -47 -18 -11 -36 -17 -39 -13 -6 7 -17 109 -74 692 -41 421 -93 937 -100
1006 -6 50 -5 51 32 77 21 14 43 25 48 23 6 -1 13 -34 17 -72z m4993 -1893
c-3 -927 -7 -2048 -10 -2491 l-5 -805 -27 -22 c-16 -13 -31 -23 -35 -23 -5 0
-8 339 -9 753 0 413 -2 916 -4 1117 -2 201 -7 1010 -10 1798 l-7 1433 57 -37
56 -38 -6 -1685z m-5352 1514 c9 -99 33 -335 52 -525 20 -190 40 -392 45 -450
6 -58 22 -217 36 -354 l25 -249 -33 -34 c-17 -18 -35 -33 -39 -33 -3 0 -9 21
-11 48 -3 26 -47 422 -99 881 l-93 834 45 38 c24 21 47 35 50 31 3 -4 14 -88
22 -187z m5796 -179 l24 -25 -7 -818 c-4 -450 -9 -901 -11 -1003 -2 -102 -7
-554 -11 -1005 -4 -451 -8 -838 -9 -860 -1 -22 -3 -144 -3 -272 l-2 -232 -31
-36 c-17 -19 -35 -35 -41 -35 -6 0 -7 252 -4 693 3 380 7 1273 8 1982 2 710 4
1377 6 1483 l3 193 27 -20 c15 -10 38 -31 51 -45z m-6104 -462 c30 -269 75
-671 100 -895 l46 -405 -27 -48 c-14 -26 -27 -46 -29 -44 -1 2 -15 95 -29 208
-15 113 -40 306 -56 430 -16 124 -34 261 -39 305 -27 223 -102 793 -106 811
-3 13 10 40 37 77 23 31 43 55 45 53 2 -2 28 -223 58 -492z m6545 -26 l61 -83
-5 -180 c-3 -99 -8 -259 -11 -355 -3 -96 -7 -247 -10 -335 -3 -88 -7 -252 -10
-365 -3 -113 -7 -272 -10 -355 -2 -82 -7 -249 -10 -370 -3 -121 -7 -276 -10
-345 -3 -69 -7 -246 -10 -395 -9 -438 -10 -440 -51 -497 -20 -26 -38 -48 -41
-48 -3 0 -3 244 1 543 3 298 8 812 11 1142 3 330 8 679 10 775 3 96 5 349 5
563 1 213 5 387 10 387 4 0 36 -37 70 -82z m-6900 -2 c0 -13 16 -142 35 -287
19 -145 48 -372 65 -504 17 -132 44 -341 60 -465 83 -644 136 -1053 190 -1480
17 -129 33 -248 35 -265 l5 -30 -21 32 c-16 25 -29 92 -59 300 -64 443 -127
878 -180 1243 -28 190 -75 518 -105 730 -31 212 -62 426 -70 475 -20 122 -19
168 6 226 23 53 39 63 39 25z m2885 -457 c260 -35 455 -96 667 -206 116 -60
201 -125 336 -257 342 -332 539 -710 651 -1248 91 -438 226 -1992 226 -2602
l0 -139 -70 -24 c-186 -63 -438 -90 -693 -74 -333 21 -592 69 -985 183 l-177
51 7 91 c13 150 9 1122 -5 1296 -25 309 -74 662 -104 739 -4 13 -7 25 -5 27 2
2 57 22 123 44 175 61 334 141 358 180 43 74 -34 180 -132 180 -17 0 -69 -18
-116 -40 -48 -21 -162 -64 -255 -94 -445 -145 -759 -188 -1121 -155 -180 16
-277 36 -390 80 -387 150 -544 279 -590 484 -18 79 -13 240 9 326 53 205 196
410 410 587 64 54 81 60 62 24 -6 -12 -11 -38 -11 -59 0 -135 193 -183 255
-64 61 118 -62 245 -180 186 l-30 -15 30 25 c123 103 453 268 728 365 326 114
682 153 1002 109z m4460 -364 c123 -426 110 -923 -40 -1471 -19 -69 -35 -128
-35 -130 0 -2 -4 -4 -10 -4 -5 0 -7 23 -5 53 2 28 6 169 10 312 3 143 7 328
10 410 3 83 7 229 10 325 2 96 8 276 11 399 4 124 10 217 15 209 4 -8 20 -54
34 -103z m-7466 -759 c34 -231 59 -421 57 -423 -4 -4 -60 205 -81 306 -47 223
-75 474 -74 646 l1 130 18 -120 c10 -66 45 -309 79 -539z m730 -829 c19 -21
25 -52 51 -293 17 -148 41 -368 55 -489 14 -121 27 -242 30 -270 l5 -50 -25
30 c-19 23 -25 41 -25 79 0 27 -13 151 -30 275 -16 124 -43 332 -60 461 -16
129 -32 245 -34 258 -4 28 5 28 33 -1z m366 -221 c17 -12 22 -45 41 -247 13
-129 39 -393 59 -588 20 -195 35 -363 33 -374 -3 -19 -3 -19 -25 -1 -21 18
-26 52 -88 604 -36 322 -65 593 -65 603 0 21 19 22 45 3z m381 -96 c7 0 17
-75 28 -202 10 -112 35 -390 56 -618 51 -544 55 -600 42 -600 -6 0 -19 10 -29
23 -15 19 -23 77 -46 313 -16 159 -46 460 -68 669 -21 209 -39 391 -39 404 0
19 4 22 23 17 12 -3 27 -6 33 -6z m847 -192 c41 -493 87 -1065 97 -1198 6 -80
18 -219 26 -309 8 -90 13 -166 11 -168 -3 -2 -16 1 -30 8 -30 14 -25 -22 -72
524 -20 226 -54 613 -75 861 -22 248 -40 456 -40 462 0 10 20 19 51 21 13 1
18 -29 32 -201z m-419 130 c5 -41 35 -375 109 -1240 18 -208 30 -378 27 -378
-3 0 -19 9 -36 19 -37 22 -32 -6 -69 411 -14 157 -43 481 -65 720 -22 239 -41
452 -43 473 -2 37 -2 37 34 37 36 0 37 -1 43 -42z"/>
<path d="M3442 5600 c-45 -28 -72 -76 -72 -130 0 -155 200 -207 270 -71 25 50
25 91 0 140 -38 75 -129 103 -198 61z"/>
</g>
</svg>
