<?xml version="1.0" standalone="no"?>
<!DOCTYPE svg PUBLIC "-//W3C//DTD SVG 20010904//EN"
 "http://www.w3.org/TR/2001/REC-SVG-20010904/DTD/svg10.dtd">
<svg version="1.0" xmlns="http://www.w3.org/2000/svg"
 width="1024.000000pt" height="1024.000000pt" viewBox="0 0 1024.000000 1024.000000"
 preserveAspectRatio="xMidYMid meet">
<metadata>
Created by potrace 1.15, written by Peter Selinger 2001-2017
</metadata>
<g transform="translate(0.000000,1024.000000) scale(0.100000,-0.100000)"
fill="#000000" stroke="none">
<path d="M4720 9174 c-19 -2 -80 -9 -135 -14 -782 -82 -1552 -413 -2180 -939
-116 -96 -380 -360 -476 -476 -520 -621 -824 -1318 -936 -2143 -25 -183 -25
-801 0 -984 112 -825 416 -1522 936 -2143 96 -116 360 -380 476 -476 621 -520
1318 -824 2143 -936 183 -25 801 -25 984 0 825 112 1522 416 2143 936 116 96
380 360 476 476 520 621 824 1318 936 2143 25 183 25 801 0 984 -112 825 -416
1522 -936 2143 -96 116 -360 380 -476 476 -619 518 -1323 826 -2137 935 -88
12 -216 17 -453 19 -181 2 -346 1 -365 -1z m53 -666 c4 -95 11 -267 17 -383 5
-115 12 -282 15 -370 11 -312 44 -1131 49 -1204 l5 -73 -45 5 c-25 2 -48 8
-52 11 -8 8 -12 88 -56 1081 -30 657 -40 943 -37 1072 1 22 16 29 72 32 l26 1
6 -172z m949 113 c5 -4 10 -272 13 -596 3 -325 8 -622 11 -661 3 -40 2 -74 -3
-76 -4 -3 -29 -3 -54 0 l-46 4 -7 281 c-4 155 -9 343 -11 417 -3 74 -7 252
-11 394 l-6 259 53 -7 c30 -4 57 -11 61 -15z m-2288 -373 c7 -59 38 -439 91
-1098 19 -239 37 -461 40 -492 6 -57 5 -58 -27 -78 -18 -11 -36 -20 -40 -20
-7 0 -10 23 -48 450 -49 554 -100 1169 -100 1214 0 38 4 44 33 59 17 8 35 16
38 16 4 1 9 -23 13 -51z m2733 -18 c28 -10 31 -15 37 -72 10 -100 7 -578 -4
-578 -29 0 -89 34 -94 53 -3 12 -6 154 -6 315 0 325 -4 306 67 282z m-1847
-47 c0 -27 7 -176 15 -333 8 -157 17 -356 21 -442 7 -174 9 -168 -58 -172 -33
-1 -33 -1 -35 49 -2 28 -7 115 -13 195 -5 80 -17 253 -25 385 -8 132 -18 263
-21 291 -6 50 -5 52 22 62 16 6 44 11 62 11 32 1 32 1 32 -46z m2790 -152 l24
-19 4 -341 4 -341 -28 10 c-66 24 -62 4 -64 366 -2 407 -4 367 18 355 9 -6 28
-19 42 -30z m-1842 -116 c6 -6 20 -491 21 -737 l1 -148 -47 7 c-27 3 -49 6
-50 7 -3 2 -33 743 -33 815 l0 74 51 -6 c29 -4 54 -9 57 -12z m2288 -256 l29
-30 3 -1325 c2 -1276 2 -1324 -16 -1324 -10 0 -25 6 -34 13 -15 11 -17 133
-24 1355 -4 838 -3 1342 3 1342 5 0 22 -14 39 -31z m-882 -20 c5 -4 10 -61 11
-126 5 -221 6 -1576 1 -1580 -2 -2 -20 3 -40 11 l-36 15 0 851 0 850 28 -6
c15 -4 31 -10 36 -15z m-2760 -56 c3 -27 8 -88 11 -138 3 -49 10 -161 16 -248
12 -176 10 -187 -47 -187 -30 0 -34 3 -38 33 -10 59 -45 551 -40 559 5 7 57
25 81 27 6 1 14 -20 17 -46z m-1645 -350 c41 -396 71 -699 71 -709 0 -12 -77
-50 -85 -42 -3 2 -24 176 -47 385 l-42 380 40 51 c21 28 42 51 45 52 3 0 11
-53 18 -117z m3912 -10 l29 -17 1 -216 c1 -118 3 -250 3 -293 2 -90 -9 -105
-63 -86 l-31 11 0 86 c0 48 -3 187 -7 310 l-6 222 23 0 c12 0 35 -8 51 -17z
m-3482 -388 c18 -192 47 -516 66 -720 l34 -370 -39 -39 -38 -39 -7 79 c-4 44
-24 248 -45 454 -21 206 -51 505 -66 664 l-28 288 39 36 c35 33 39 34 46 16 4
-10 21 -176 38 -369z m-735 -240 c14 -132 66 -602 116 -1045 50 -443 97 -870
106 -950 8 -80 22 -201 30 -270 14 -117 14 -125 -2 -137 -28 -20 -31 -17 -38
45 -4 31 -20 158 -36 282 -17 124 -43 331 -60 460 -17 129 -44 339 -60 465
-16 127 -45 352 -64 500 -19 149 -49 376 -66 505 -16 129 -30 250 -30 268 0
18 14 61 31 95 27 53 33 59 40 42 4 -11 19 -128 33 -260z m5170 -181 c14 -14
16 -76 16 -535 l0 -519 -28 0 c-61 0 -60 -15 -64 553 l-3 517 32 0 c17 0 39
-7 47 -16z m-2189 -179 c226 -34 423 -97 618 -197 126 -65 186 -110 326 -244
208 -199 336 -373 456 -619 175 -358 243 -675 329 -1525 40 -395 91 -1087 101
-1360 3 -85 8 -187 11 -226 6 -83 9 -79 -126 -150 -215 -113 -402 -185 -662
-253 -337 -89 -551 -119 -899 -128 l-246 -6 -5 27 c-3 15 -2 82 3 149 40 587
37 1347 -6 1797 -23 227 -66 500 -90 561 -5 13 18 24 117 58 181 63 338 142
362 181 43 74 -34 180 -132 180 -17 0 -68 -18 -115 -39 -224 -103 -673 -224
-932 -251 -179 -19 -457 -8 -650 27 -105 19 -293 90 -450 171 -86 45 -125 73
-186 132 -116 114 -150 201 -150 384 0 227 99 439 297 641 78 80 194 178 201
171 3 -2 0 -13 -6 -24 -16 -29 -14 -88 4 -122 18 -35 81 -70 127 -70 69 0 128
62 128 135 0 101 -105 166 -194 120 -75 -39 -8 12 114 87 303 187 642 319 985
384 192 36 464 40 670 9z m-3280 -116 c37 -302 106 -827 111 -851 4 -20 0 -30
-18 -42 -12 -9 -25 -12 -29 -8 -3 4 -11 41 -17 82 -5 41 -33 237 -62 435 l-52
360 22 73 c12 40 24 71 26 69 3 -2 11 -56 19 -118z m6365 85 c36 -15 40 -19
40 -53 3 -376 -4 -928 -11 -935 -2 -3 -22 -6 -44 -8 l-40 -3 -3 508 c-1 329 1
507 8 507 5 0 28 -7 50 -16z m437 -549 l36 -15 -7 -745 -7 -744 -30 -101 c-16
-55 -38 -119 -48 -142 l-17 -41 2 159 c5 281 14 1212 14 1432 0 139 4 212 10
212 6 0 27 -7 47 -15z m-6014 -249 c6 -81 4 -89 -25 -153 l-32 -68 -12 100
c-19 160 -19 167 19 191 17 12 35 20 38 18 3 -2 9 -42 12 -88z m-913 -788 c0
-36 -37 -40 -44 -5 -14 62 -27 220 -31 377 l-5 175 40 -260 c22 -143 40 -272
40 -287z m295 185 c9 -82 79 -626 115 -893 54 -413 58 -472 34 -447 -3 3 -26
142 -50 309 -156 1078 -155 1071 -142 1079 27 18 36 8 43 -48z m720 -458 c6
-25 35 -296 35 -329 0 -28 -36 -54 -52 -38 -5 5 -18 90 -28 188 -11 99 -22
202 -25 229 l-6 50 35 -40 c20 -22 38 -49 41 -60z m807 -377 c11 -10 18 -50
27 -158 15 -195 17 -180 -24 -180 -42 0 -41 -3 -55 173 -14 179 -14 177 13
177 13 0 30 -6 39 -12z m792 -15 c2 -10 7 -70 11 -133 3 -63 12 -205 20 -315
28 -404 29 -455 12 -455 -19 0 -21 15 -43 300 -8 118 -23 304 -33 413 -9 109
-15 200 -12 202 11 12 40 3 45 -12z m-1874 -188 c0 -9 13 -131 29 -273 68
-593 82 -730 79 -758 l-3 -29 -17 25 c-12 18 -22 83 -38 245 -11 121 -37 345
-57 497 -19 152 -33 284 -30 293 8 20 37 20 37 0z m5766 -307 l-7 -303 -34
-52 c-20 -29 -38 -53 -40 -53 -3 0 -4 145 -2 321 l3 322 37 33 c20 19 40 34
43 34 4 0 4 -136 0 -302z m-928 -704 c2 -540 2 -551 -18 -569 -20 -18 -20 -18
-21 181 0 109 -2 360 -5 557 -3 197 -3 365 0 374 3 8 14 13 23 11 17 -3 18
-38 21 -554z m-3264 324 c7 -62 32 -359 42 -499 6 -94 6 -97 -16 -104 -12 -4
-26 -3 -30 2 -7 7 -29 229 -56 571 l-7 82 31 0 c29 0 31 -2 36 -52z m-786
-350 c7 -7 12 -31 12 -55 0 -23 11 -162 26 -309 14 -146 23 -269 19 -272 -8
-9 -60 33 -60 49 -3 79 -20 300 -31 404 -19 176 -18 195 4 195 10 0 23 -5 30
-12z m475 -675 c8 -79 9 -193 2 -193 -2 0 -15 5 -29 11 -29 14 -32 26 -42 146
l-6 91 28 5 c16 2 32 5 35 6 3 0 9 -29 12 -66z"/>
<path d="M3862 5660 c-96 -59 -96 -201 0 -260 95 -57 218 18 218 132 0 110
-126 184 -218 128z"/>
</g>
</svg>
